HIERARCHY
ROOT hip
{
	OFFSET 0.000000 0.000000 0.000000 
	CHANNELS 6 Xposition Yposition Zposition Xrotation Zrotation Yrotation
	JOINT abdomen
	{
		OFFSET 0.000000 3.402643 0.000000 
		CHANNELS 3 Xrotation Zrotation Yrotation
		JOINT chest
		{
			OFFSET 0.000000 8.438565 -0.680529 
			CHANNELS 3 Xrotation Zrotation Yrotation
			JOINT neck
			{
				OFFSET 0.000000 10.207942 -0.272212 
				CHANNELS 3 Xrotation Zrotation Yrotation
				JOINT head
				{
					OFFSET 0.000000 3.130431 0.000000 
					CHANNELS 3 Xrotation Zrotation Yrotation
					End Site
					{
						OFFSET 0.000000 3.130435 0.000000 
					}
				}
			}
			JOINT lCollar
			{
				OFFSET 3.470700 6.669187 -0.816635 
				CHANNELS 3 Yrotation Zrotation Xrotation
				JOINT lShldr
				{
					OFFSET 3.198488 0.000000 0.000000 
					CHANNELS 3 Zrotation Yrotation Xrotation
					JOINT lForeArm
					{
						OFFSET 10.139888 0.000000 0.000000 
						CHANNELS 3 Yrotation Zrotation Xrotation
						JOINT lHand
						{
							OFFSET 8.370511 0.000000 0.000000 
							CHANNELS 3 Zrotation Yrotation Xrotation
							End Site
							{
								OFFSET 4.083176 0.000000 0.000000 
							}
						}
					}
				}
			}
			JOINT rCollar
			{
				OFFSET -3.470700 6.669187 -0.816635 
				CHANNELS 3 Yrotation Zrotation Xrotation
				JOINT rShldr
				{
					OFFSET -3.198488 0.000000 0.000000 
					CHANNELS 3 Zrotation Yrotation Xrotation
					JOINT rForeArm
					{
						OFFSET -10.139888 0.000000 0.000000 
						CHANNELS 3 Yrotation Zrotation Xrotation
						JOINT rHand
						{
							OFFSET -8.370511 0.000000 0.000000 
							CHANNELS 3 Zrotation Yrotation Xrotation
							End Site
							{
								OFFSET -4.083176 0.000000 0.000000 
							}
						}
					}
				}
			}
		}
	}
	JOINT lThigh
	{
		OFFSET 5.308129 -1.633274 1.361059 
		CHANNELS 3 Xrotation Zrotation Yrotation
		JOINT lShin
		{
			OFFSET -2.041588 -20.007561 0.000000 
			CHANNELS 3 Xrotation Zrotation Yrotation
			JOINT lFoot
			{
				OFFSET 0.000000 -19.190928 -1.224953 
				CHANNELS 3 Xrotation Yrotation Zrotation
				End Site
				{
					OFFSET 0.000000 -2.449906 4.627600 
				}
			}
		}
	}
	JOINT rThigh
	{
		OFFSET -5.308129 -1.633274 1.361059 
		CHANNELS 3 Xrotation Zrotation Yrotation
		JOINT rShin
		{
			OFFSET 2.041588 -20.007561 0.000000 
			CHANNELS 3 Xrotation Zrotation Yrotation
			JOINT rFoot
			{
				OFFSET 0.000000 -19.190928 -1.224953 
				CHANNELS 3 Xrotation Yrotation Zrotation
				End Site
				{
					OFFSET 0.000000 -2.449906 4.627600 
				}
			}
		}
	}
}
MOTION
Frames: 8
Frame Time: 0.016667
4.778505 53.233089 -0.939773 -10.820313 -2.822266 -6.250481 26.533203 1.982422 -0.634428 3.613281 1.533203 -2.792707 -8.447267 0.957031 -0.175781 13.554688 -2.236328 -4.121474 -19.062500 -10.029297 -0.535409 -60.214844 11.406250 -20.195314 -28.085938 -5.000000 25.712887 -16.464844 -2.578125 2.968750 13.906251 12.832032 -0.675997 59.287113 -7.187500 -16.358643 27.158203 4.990234 17.245245 13.496094 -22.363281 3.505860 14.147349 8.290240 10.903214 15.501908 -4.638728 -1.429644 -16.914320 5.538671 0.588565 16.436052 -12.099088 -0.927621 2.185675 3.237488 0.183993 -1.321365 -12.167187 10.210889 
5.025658 53.239185 -1.069688 -10.654297 -3.076172 -7.246618 26.630857 1.953125 -0.654297 3.623047 1.572266 -2.900123 -8.466797 0.927734 -0.175623 13.476563 -2.236328 -4.404678 -19.169922 -9.912109 -0.525663 -60.058590 11.289063 -19.959024 -28.378906 -5.000000 25.322266 -16.435547 -2.695313 2.978516 13.749999 12.822265 -0.673828 59.267574 -7.011718 -16.162109 27.099611 4.990234 17.284306 13.603516 -22.402344 3.466797 14.007725 7.977374 11.716307 15.609033 -4.621832 -1.426450 -17.022562 5.738488 0.917118 15.941518 -12.309042 -0.673696 1.787482 3.162601 0.216789 -0.858992 -11.905560 10.358534 
5.254106 53.240337 -1.202061 -10.498047 -3.310547 -8.242752 26.689455 1.875000 -0.732103 3.632813 1.621094 -2.978516 -8.447267 0.878906 -0.166016 13.398438 -2.216797 -4.794922 -19.287109 -9.765625 -0.515922 -59.941406 11.269531 -19.812546 -28.623049 -5.000000 24.951170 -16.464844 -2.802734 3.017578 13.613280 12.792969 -0.673828 59.316410 -6.894532 -16.075394 27.080078 4.990234 17.392576 13.720702 -22.451172 3.457031 13.816614 7.704678 12.526719 15.748424 -4.561239 -1.430060 -17.125059 5.879411 1.134841 15.620646 -12.466154 -0.693631 1.327325 3.139669 0.166762 -0.643612 -11.795403 10.384673 
5.482550 53.241486 -1.334433 -10.332030 -3.544922 -9.238885 26.777342 1.787109 -0.810547 3.632813 1.669922 -3.066406 -8.417969 0.830078 -0.146484 13.339844 -2.197266 -5.185547 -19.404297 -9.609375 -0.507812 -59.824219 11.240234 -19.687502 -28.847656 -5.000000 24.580929 -16.474607 -2.910156 3.056147 13.486328 12.763672 -0.673828 59.375000 -6.777344 -15.976563 27.060545 4.990234 17.490234 13.828125 -22.500002 3.433763 13.643349 7.439086 13.360124 15.889168 -4.530350 -1.437878 -17.321745 5.971001 1.364570 15.272907 -12.616012 -0.699585 0.897014 3.126679 0.119264 -0.454184 -11.652581 10.399374 
5.696831 53.241478 -1.465261 -10.166016 -3.789063 -10.244142 26.835938 1.708984 -0.898146 3.652344 1.718750 -3.154004 -8.369141 0.781250 -0.146484 13.261720 -2.148438 -5.635167 -19.531250 -9.433595 -0.507813 -59.746090 11.259766 -19.617231 -29.082033 -5.000000 24.228514 -16.474609 -3.017578 3.114720 13.339844 12.734375 -0.673828 59.433594 -6.669922 -15.899570 27.031250 4.990234 17.616337 13.945313 -22.519529 3.417969 13.460697 7.166743 14.132041 16.036430 -4.442718 -1.390020 -17.428322 6.081994 1.600429 15.033967 -12.709336 -0.938987 0.497909 3.116445 0.132333 -0.413271 -11.626800 10.316854 
5.896950 53.240326 -1.594548 -10.000000 -4.033203 -11.250687 26.894531 1.630859 -0.966797 3.662110 1.757813 -3.251653 -8.291017 0.732422 -0.136719 13.193360 -2.099610 -6.162467 -19.658203 -9.248047 -0.496478 -59.707027 11.347656 -19.607450 -29.287109 -5.000000 23.906248 -16.445311 -3.095703 3.192833 13.193359 12.705078 -0.673828 59.501949 -6.591796 -15.849606 27.011719 4.990234 17.782352 14.062499 -22.509764 3.398438 13.252683 6.950799 14.915779 16.193800 -4.345379 -1.390166 -17.573696 6.307964 1.827016 14.832207 -12.771711 -1.291277 0.176396 3.161395 0.120887 -0.544411 -11.733101 10.152037 
6.097066 53.239166 -1.723834 -9.833984 -4.277344 -12.266354 26.962891 1.562392 -1.035016 3.662109 1.796875 -3.339844 -8.212891 0.683594 -0.126953 13.115233 -2.041015 -6.679688 -19.765623 -9.062500 -0.476978 -59.658207 11.425781 -19.609375 -29.492189 -5.000000 23.574219 -16.416016 -3.193359 3.270942 13.046875 12.675781 -0.673828 59.580074 -6.503907 -15.800780 26.992189 4.990234 17.938602 14.179687 -22.509768 3.388672 13.064435 6.737981 15.719477 16.364996 -4.266270 -1.412545 -17.715853 6.489299 2.084647 14.647475 -12.870230 -1.611840 -0.175060 3.249142 0.057061 -0.678590 -11.735304 9.993771 
6.263756 53.239670 -1.846074 -9.677735 -4.619141 -13.271485 27.021482 1.582031 -1.083984 3.681641 1.826172 -3.417969 -8.085938 0.615234 -0.117187 13.066405 -1.992187 -7.246094 -19.892576 -8.906250 -0.477004 -59.658199 11.621094 -19.763655 -29.638670 -5.000000 23.360226 -16.376953 -3.232422 3.300232 12.910156 12.656250 -0.666202 59.658199 -6.464844 -15.830078 27.031250 4.990234 18.124149 14.287109 -22.480469 3.375172 12.901815 6.629316 16.474554 16.556200 -4.153390 -1.354749 -17.878166 6.678617 2.314551 14.604474 -12.808600 -2.176966 -0.253476 3.322772 0.069916 -1.065050 -11.925100 9.669977 
